<svg width="203" height="81" viewBox="0 0 203 81" fill="none" xmlns="http://www.w3.org/2000/svg">
<path d="M76.6116 37.2594C71.9248 42.7256 67.658 46.6263 63.9241 48.8612C60.0377 51.1877 56.5747 51.8047 53.6326 50.6971C51.4909 49.8947 49.8307 48.2169 48.7001 45.7127C47.8974 43.9347 47.3469 41.6954 47.0552 39.0321C46.1461 40.7982 45.0013 43.0788 43.5955 45.9188C42.3366 48.641 41.5032 50.3341 41.0481 51.0928C38.9558 55.0807 36.5762 56.7542 33.9761 56.0685C30.5263 55.2268 28.8869 50.8606 28.9658 42.7224C28.9658 42.0017 28.9746 41.2168 28.9921 40.373C24.7012 46.6906 20.2808 54.1639 15.8287 62.6314C14.8011 64.5894 13.5949 65.5825 12.2428 65.5825C11.7395 65.5825 11.2537 65.4561 10.8008 65.2064C10.429 65.0015 10.1406 64.8161 9.91803 64.6406C9.57479 64.3637 9.32916 63.8797 9.08681 63.0173C8.87626 62.2607 8.8313 61.3134 8.95083 60.2003C9.06378 59.1581 9.29955 57.6754 9.67349 55.6673C10.0419 53.6951 10.6001 51.2912 11.3326 48.5189C13.6673 39.2338 16.5217 30.7924 19.8137 23.4413C20.1152 22.6607 20.6712 22.0905 21.4235 21.7907C22.179 21.4909 22.9751 21.516 23.7263 21.8638C24.4873 22.2181 25.0027 22.785 25.2593 23.5481C25.5072 24.2927 25.4798 25.021 25.1793 25.7165C22.2503 32.298 19.7205 39.5499 17.6347 47.3382C21.1186 41.5242 24.7121 36.0515 28.3539 31.017C29.9111 28.8039 31.5735 28.8006 32.6953 29.192C33.8621 29.5823 34.5837 30.4283 34.7799 31.6395C34.9346 32.6065 34.974 34.4217 34.8995 37.1907C34.8271 39.4104 34.7909 41.2724 34.7909 42.73C34.7909 45.522 35.0037 47.7013 35.4258 49.2362C35.5991 48.9724 35.7822 48.6726 35.9741 48.339C36.3261 47.6391 37.0894 46.0878 38.3724 43.4604C41.4121 37.121 43.5505 33.072 44.9048 31.09C46.4214 28.8704 48.075 27.9296 49.8175 28.2926L49.8405 28.2981C51.7914 28.7614 52.7805 30.6452 52.7805 33.8973C52.6939 42.2416 54.3442 44.6673 55.7501 45.2298C56.5846 45.5122 58.2953 45.3988 61.7155 43.2849C64.6248 41.4861 68.1394 38.185 72.1617 33.4732C72.6628 32.8747 73.3569 32.5269 74.1662 32.4757H74.1684C74.9689 32.4266 75.6806 32.6555 76.2848 33.1549C76.9022 33.6683 77.2422 34.3399 77.2948 35.1521C77.3441 35.9501 77.1139 36.6587 76.6116 37.2594Z" fill="#03294E"/>
<path d="M10.0353 29.6574C12.2779 29.6574 14.096 27.85 14.096 25.6205C14.096 23.3909 12.2779 21.5835 10.0353 21.5835C7.79264 21.5835 5.97461 23.3909 5.97461 25.6205C5.97461 27.85 7.79264 29.6574 10.0353 29.6574Z" fill="#03294E"/>
<path d="M93.6566 15.7781C92.821 15.0074 91.1783 16.2556 91.1783 16.2556L87.758 19.6876C87.758 19.6876 79.0829 17.4592 78.732 17.3676C78.301 17.2641 77.9457 17.6467 77.4994 18.2016C77.0531 18.7555 76.995 19.1141 77.6167 19.4619C78.2363 19.8108 83.1249 22.3182 83.1249 22.3182L84.1075 23.283C84.1075 23.283 84.1064 23.2841 84.1053 23.2852C84.0998 23.2917 84.0844 23.3103 84.0592 23.3408L81.0184 27.0245C81.0173 27.0245 81.0173 27.0256 81.0173 27.0256C80.4514 26.7934 79.0478 26.2494 79.0478 26.2494C79.0478 26.2494 78.6355 26.1044 78.3964 26.3028C78.1431 26.4424 77.994 26.6168 77.8185 26.7858C77.6551 26.9766 77.4172 27.1663 77.7034 27.502C77.9896 27.8378 81.6785 31.4682 82.0195 31.7505C82.3595 32.0318 82.5481 31.793 82.7378 31.6295C82.9056 31.4529 83.081 31.3024 83.2181 31.0506C83.4155 30.8097 83.2653 30.4019 83.2653 30.4019C83.2653 30.4019 82.7049 29.012 82.4659 28.4516C82.4735 28.4451 82.4823 28.4385 82.4911 28.432C82.99 28.0471 85.442 25.9823 86.0583 25.4612C86.1493 25.386 86.1998 25.3435 86.1998 25.3435L87.1801 26.3116C87.1801 26.3116 89.7494 31.1465 90.1058 31.7592C90.4633 32.373 90.823 32.3131 91.3757 31.8639C91.9294 31.4136 92.3111 31.0582 92.2025 30.6298C92.1071 30.282 89.7812 21.6793 89.7812 21.6793L93.1993 18.2463C93.1993 18.2463 94.4395 16.6012 93.6566 15.7781ZM89.6584 21.6477L89.6749 21.7077C89.699 21.7938 92.0018 30.3147 92.0961 30.6571C92.1817 30.9961 91.9097 31.2894 91.3066 31.7789C90.9984 32.0285 90.7857 32.1266 90.619 32.0961C90.4754 32.0699 90.3394 31.9424 90.2012 31.7047C89.8492 31.1008 87.3029 26.3083 87.2777 26.2603L86.2063 25.1963L86.1296 25.2606C86.1241 25.265 86.0408 25.3347 85.9026 25.4503C85.1558 26.0739 82.8014 28.0406 82.4001 28.3644C82.399 28.3655 82.3979 28.3655 82.3968 28.3666L82.3913 28.3709L82.3321 28.4156L82.3332 28.4178L82.365 28.4941C82.6007 29.0479 83.1578 30.4292 83.1622 30.4401C83.1644 30.4434 83.2861 30.7944 83.1326 30.9819L83.1216 30.9983C83.0174 31.1891 82.8913 31.3177 82.7565 31.454C82.7258 31.4856 82.6939 31.5183 82.6621 31.551C82.6424 31.5674 82.6238 31.5848 82.604 31.6022C82.4341 31.756 82.3211 31.8584 82.0897 31.6666H82.0886C81.7618 31.3962 78.063 27.755 77.7867 27.4312C77.5926 27.2022 77.6935 27.0889 77.8481 26.9177C77.8668 26.897 77.8843 26.8774 77.8942 26.8643C77.9282 26.8316 77.9611 26.7989 77.994 26.7673C78.1299 26.631 78.2582 26.5034 78.449 26.3988L78.4655 26.3868C78.6223 26.2581 78.9129 26.3181 79.0083 26.3508C79.0215 26.3563 80.4163 26.897 80.9756 27.1259L81.0556 27.1586L81.1061 27.09C81.4219 26.6615 84.1634 23.3855 84.1919 23.3528L84.2555 23.2765L84.1842 23.2056L83.2017 22.2408L83.1754 22.2212C83.126 22.1961 78.2813 19.7105 77.6705 19.3671C77.4303 19.233 77.3009 19.0989 77.2735 18.956C77.2406 18.7893 77.3371 18.5778 77.5849 18.2692C77.9918 17.7634 78.3339 17.384 78.7046 17.4734C79.0511 17.5639 87.644 19.7715 87.7306 19.7933L87.792 19.8097L91.2507 16.3385C91.3548 16.2611 92.8462 15.1796 93.5765 15.8534C94.2663 16.5773 93.1927 18.0708 93.116 18.1755L89.6584 21.6477Z" fill="#03294E"/>
<path d="M93.2878 18.3118L93.278 18.3238L89.9027 21.7121C90.111 22.4829 92.2176 30.2723 92.3086 30.6015C92.4336 31.0976 92.0103 31.4889 91.4445 31.9479C91.1298 32.2041 90.8951 32.3197 90.6823 32.3197C90.6473 32.3197 90.6133 32.3164 90.5793 32.3109C90.3654 32.2717 90.1856 32.1136 90.0112 31.8149C89.6669 31.2229 87.2478 26.6725 87.091 26.377L86.194 25.4918C86.1786 25.5038 86.1622 25.518 86.1435 25.5343L86.1425 25.5354C85.5558 26.0293 83.1882 28.0243 82.5994 28.4855C82.6191 28.5302 82.6388 28.5792 82.6608 28.6305C82.6728 28.661 82.686 28.6915 82.6992 28.7242C82.7024 28.7319 82.7057 28.7406 82.709 28.7482C82.7255 28.7864 82.7408 28.8256 82.7584 28.8659C82.7617 28.8747 82.766 28.8834 82.7693 28.8921C82.7825 28.9259 82.7967 28.9608 82.8121 28.9957C82.8362 29.0567 82.8625 29.1189 82.8878 29.1821C82.9305 29.2857 82.9722 29.3892 83.0139 29.4906C83.2014 29.9496 83.3637 30.3541 83.367 30.3617C83.3758 30.3835 83.5337 30.8261 83.3089 31.1106C83.1915 31.3243 83.0501 31.4671 82.913 31.6067C82.8812 31.6394 82.8494 31.671 82.8176 31.7048L82.8099 31.7124C82.7902 31.7288 82.7704 31.7462 82.7518 31.7637C82.5818 31.9163 82.3263 32.1463 81.9491 31.8334C81.5971 31.5434 77.9158 27.9197 77.6197 27.5719C77.3017 27.199 77.532 26.9418 77.6844 26.7728C77.7009 26.7532 77.7184 26.7346 77.7349 26.715C77.7744 26.6768 77.8062 26.6441 77.838 26.6125C77.9772 26.4741 78.1198 26.3313 78.3336 26.2124C78.6187 25.9868 79.065 26.1405 79.0837 26.147C79.0925 26.1503 79.4576 26.292 79.8886 26.4599C79.9873 26.4991 80.0904 26.5395 80.1923 26.5798C80.4566 26.6834 80.7198 26.787 80.9227 26.8687C80.9435 26.8774 80.9633 26.8851 80.9819 26.8916C81.0093 26.9036 81.0356 26.9145 81.0597 26.9243L81.0181 27.0246C81.017 27.0246 81.017 27.0257 81.017 27.0257L80.9753 27.126C80.416 26.8971 79.0212 26.3563 79.008 26.3509C78.9126 26.3182 78.622 26.2582 78.4652 26.3869L78.4488 26.3988C78.258 26.5035 78.1297 26.6311 77.9937 26.7673C77.9608 26.7989 77.9279 26.8317 77.8939 26.8644C77.884 26.8774 77.8665 26.8971 77.8478 26.9178C77.6932 27.0889 77.5923 27.2023 77.7864 27.4313C78.0628 27.755 81.7616 31.3963 82.0884 31.6666H82.0894C82.3208 31.8585 82.4338 31.756 82.6038 31.6023C82.6235 31.5849 82.6421 31.5674 82.6619 31.5511C82.6937 31.5184 82.7255 31.4857 82.7562 31.4541C82.8911 31.3178 83.0172 31.1891 83.1213 30.9984L83.1323 30.982C83.2858 30.7945 83.1641 30.4434 83.1619 30.4402C83.1575 30.4293 82.6005 29.048 82.3647 28.4942L82.3329 28.4179L82.3318 28.4157L82.391 28.371L82.3965 28.3666C82.3976 28.3655 82.3987 28.3655 82.3998 28.3645C82.811 28.0527 85.1577 26.0783 85.9023 25.4504C86.0405 25.3348 86.1238 25.265 86.1293 25.2607L86.2061 25.1964L87.2774 26.2604C87.3026 26.3084 89.8489 31.1008 90.2009 31.7048C90.3391 31.9425 90.4751 32.07 90.6187 32.0962C90.7854 32.1267 90.9982 32.0286 91.3063 31.7789C91.9094 31.2894 92.1814 30.9962 92.0959 30.6571C92.0015 30.3148 89.6987 21.7939 89.6746 21.7078L89.6581 21.6478L93.1157 18.1755C93.1924 18.0709 94.266 16.5773 93.5763 15.8534C92.8459 15.1797 91.3546 16.2612 91.2504 16.3386L87.7917 19.8097L87.7303 19.7934C87.6437 19.7716 79.0508 17.564 78.7043 17.4735C78.3336 17.3841 77.9915 17.7635 77.5846 18.2693C77.3368 18.5778 77.2403 18.7893 77.2732 18.9561C77.3006 19.0989 77.43 19.233 77.6702 19.3671C78.281 19.7105 83.1257 22.1962 83.1751 22.2212L83.2014 22.2409L84.1839 23.2057L84.1072 23.2831C84.1072 23.2831 84.1061 23.2842 84.105 23.2853L84.0293 23.3605L83.958 23.2907L83.0588 22.4077C82.7606 22.2539 78.1604 19.8937 77.5616 19.5568C77.259 19.3867 77.0989 19.209 77.0572 18.9975C77.0111 18.7588 77.1175 18.5004 77.4136 18.133C77.8698 17.5661 78.2591 17.142 78.758 17.262C79.0914 17.3481 86.9474 19.3671 87.7248 19.5666L91.1111 16.1696C91.1813 16.1162 92.8371 14.8745 93.7309 15.6986C94.573 16.5839 93.3405 18.242 93.2878 18.3118Z" fill="#03294E"/>
<path d="M93.6566 15.7781C92.821 15.0074 91.1783 16.2556 91.1783 16.2556L87.758 19.6876C87.758 19.6876 79.0829 17.4592 78.732 17.3676C78.301 17.2641 77.9457 17.6467 77.4994 18.2016C77.0531 18.7555 76.995 19.1141 77.6167 19.4619C78.2363 19.8108 83.1249 22.3182 83.1249 22.3182L84.1075 23.283C84.1075 23.283 84.1064 23.2841 84.1053 23.2852C84.0998 23.2917 84.0844 23.3103 84.0592 23.3408C83.6897 23.7823 81.3177 26.619 81.0184 27.0245C81.0173 27.0245 81.0173 27.0256 81.0173 27.0256C80.4514 26.7934 79.0478 26.2494 79.0478 26.2494C79.0478 26.2494 78.6355 26.1044 78.3964 26.3028C78.1431 26.4424 77.994 26.6168 77.8185 26.7858C77.6551 26.9766 77.4172 27.1663 77.7034 27.502C77.9896 27.8378 81.6785 31.4682 82.0195 31.7505C82.3595 32.0318 82.5481 31.793 82.7378 31.6295C82.9056 31.4529 83.081 31.3024 83.2181 31.0506C83.4155 30.8097 83.2653 30.4019 83.2653 30.4019C83.2653 30.4019 82.7049 29.012 82.4659 28.4516C82.4735 28.4451 82.4823 28.4385 82.4911 28.432C82.9725 28.0406 85.4398 25.9791 86.0583 25.4612C86.1493 25.386 86.1998 25.3435 86.1998 25.3435L87.1801 26.3116C87.1801 26.3116 89.7494 31.1465 90.1058 31.7592C90.4633 32.373 90.823 32.3131 91.3757 31.8639C91.9294 31.4136 92.3111 31.0582 92.2025 30.6298C92.1071 30.282 89.7812 21.6793 89.7812 21.6793L93.1993 18.2463C93.1993 18.2463 94.4395 16.6012 93.6566 15.7781ZM89.6584 21.6477L89.6749 21.7077C89.699 21.7938 92.0018 30.3147 92.0961 30.6571C92.1817 30.9961 91.9097 31.2894 91.3066 31.7789C90.9984 32.0285 90.7857 32.1266 90.619 32.0961C90.4754 32.0699 90.3394 31.9424 90.2012 31.7047C89.8492 31.1008 87.3029 26.3083 87.2777 26.2603L86.2063 25.1963L86.1296 25.2606C86.1241 25.265 86.0408 25.3347 85.9026 25.4503C85.1558 26.0739 82.8014 28.0406 82.4001 28.3644C82.399 28.3655 82.3979 28.3655 82.3968 28.3666L82.3913 28.3709L82.3321 28.4156L82.3332 28.4178L82.365 28.4941C82.6007 29.0479 83.1578 30.4292 83.1622 30.4401C83.1644 30.4434 83.2861 30.7944 83.1326 30.9819L83.1216 30.9983C83.0174 31.1891 82.8913 31.3177 82.7565 31.454C82.7258 31.4856 82.6939 31.5183 82.6621 31.551C82.6424 31.5674 82.6238 31.5848 82.604 31.6022C82.4341 31.756 82.3211 31.8584 82.0897 31.6666H82.0886C81.7618 31.3962 78.063 27.755 77.7867 27.4312C77.5926 27.2022 77.6935 27.0889 77.8481 26.9177C77.8668 26.897 77.8843 26.8774 77.8942 26.8643C77.9282 26.8316 77.9611 26.7989 77.994 26.7673C78.1299 26.631 78.2582 26.5034 78.449 26.3988L78.4655 26.3868C78.6223 26.2581 78.9129 26.3181 79.0083 26.3508C79.0215 26.3563 80.4163 26.897 80.9756 27.1259L81.0556 27.1586L81.1061 27.09C81.4219 26.6615 84.1634 23.3855 84.1919 23.3528L84.2555 23.2765L84.1842 23.2056L83.2017 22.2408L83.1754 22.2212C83.126 22.1961 78.2813 19.7105 77.6705 19.3671C77.4303 19.233 77.3009 19.0989 77.2735 18.956C77.2406 18.7893 77.3371 18.5778 77.5849 18.2692C77.9918 17.7634 78.3339 17.384 78.7046 17.4734C79.0511 17.5639 87.644 19.7715 87.7306 19.7933L87.792 19.8097L91.2507 16.3385C91.3548 16.2611 92.8462 15.1796 93.5765 15.8534C94.2663 16.5773 93.1927 18.0708 93.116 18.1755L89.6584 21.6477Z" fill="#03294E"/>
<path d="M93.7309 15.6986C92.8371 14.8745 91.1813 16.1162 91.1111 16.1696L87.7248 19.5666C86.9474 19.3671 79.0914 17.3481 78.758 17.262C78.2591 17.142 77.8698 17.5661 77.4136 18.133C77.1175 18.5004 77.0111 18.7588 77.0572 18.9975C77.0989 19.209 77.259 19.3867 77.5616 19.5568C78.1604 19.8937 82.7606 22.2539 83.0588 22.4077L83.958 23.2907C83.5501 23.7791 81.4315 26.3116 80.9819 26.8916C80.9808 26.8916 80.9808 26.8927 80.9808 26.8927C80.9622 26.8851 80.9424 26.8774 80.9227 26.8687C80.7198 26.787 80.4566 26.6834 80.1923 26.5798C80.0904 26.5384 79.9873 26.4981 79.8886 26.4599C79.4576 26.292 79.0925 26.1503 79.0837 26.147C79.065 26.1405 78.6187 25.9868 78.3336 26.2124C78.1198 26.3313 77.9772 26.4741 77.838 26.6125C77.8062 26.6441 77.7744 26.6768 77.7349 26.715C77.7184 26.7346 77.7009 26.7532 77.6844 26.7728C77.532 26.9418 77.3017 27.199 77.6197 27.5719C77.9158 27.9197 81.5971 31.5434 81.9491 31.8334C82.3263 32.1463 82.5818 31.9163 82.7518 31.7637C82.7704 31.7462 82.7902 31.7288 82.8099 31.7124L82.8176 31.7048C82.8494 31.671 82.8812 31.6394 82.913 31.6067C83.0501 31.4671 83.1915 31.3243 83.3089 31.1106C83.5337 30.8261 83.3758 30.3835 83.367 30.3617C83.3637 30.3541 83.2014 29.9496 83.0139 29.4906C82.9722 29.3892 82.9305 29.2846 82.8878 29.1821C82.8625 29.1189 82.8362 29.0567 82.8121 28.9957C82.7967 28.9608 82.7825 28.9259 82.7693 28.8921C82.766 28.8834 82.7617 28.8747 82.7584 28.8659C82.7419 28.8256 82.7255 28.7864 82.709 28.7482C82.7057 28.7406 82.7024 28.7319 82.6992 28.7242C82.686 28.6915 82.6728 28.661 82.6608 28.6305C82.6388 28.5792 82.6191 28.5302 82.5994 28.4855V28.4844C83.163 28.0232 85.5591 26.0216 86.1425 25.5354L86.1435 25.5343C86.1622 25.518 86.1786 25.5038 86.194 25.4918L87.091 26.377C87.2478 26.6725 89.6669 31.2229 90.0112 31.8149C90.1856 32.1136 90.3654 32.2717 90.5793 32.3109C90.6133 32.3164 90.6473 32.3197 90.6823 32.3197C90.8951 32.3197 91.1298 32.2041 91.4445 31.9479C92.0103 31.4889 92.4336 31.0976 92.3086 30.6015C92.2176 30.2723 90.111 22.4829 89.9027 21.7121L93.278 18.3238L93.2878 18.3118C93.3405 18.242 94.573 16.5839 93.7309 15.6986ZM89.6581 21.6478L89.6746 21.7078C89.6987 21.7939 92.0015 30.3148 92.0959 30.6571C92.1814 30.9962 91.9094 31.2894 91.3063 31.7789C90.9982 32.0286 90.7854 32.1267 90.6187 32.0962C90.4751 32.07 90.3391 31.9425 90.2009 31.7048C89.8489 31.1008 87.3026 26.3084 87.2774 26.2604L86.2061 25.1964L86.1293 25.2607C86.1238 25.265 86.0405 25.3348 85.9023 25.4504C85.1555 26.074 82.8011 28.0407 82.3998 28.3645C82.3987 28.3655 82.3976 28.3655 82.3965 28.3666L82.391 28.371L82.3329 28.4179L82.3647 28.4942C82.6005 29.048 83.1575 30.4293 83.1619 30.4402C83.1641 30.4434 83.2858 30.7945 83.1323 30.982L83.1213 30.9984C83.0172 31.1891 82.8911 31.3178 82.7562 31.4541C82.7255 31.4857 82.6937 31.5184 82.6619 31.5511C82.6421 31.5674 82.6235 31.5849 82.6038 31.6023C82.4338 31.756 82.3208 31.8585 82.0894 31.6666H82.0884C81.7616 31.3963 78.0628 27.755 77.7864 27.4313C77.5923 27.2023 77.6932 27.0889 77.8478 26.9178C77.8665 26.8971 77.884 26.8774 77.8939 26.8644C77.9279 26.8317 77.9608 26.7989 77.9937 26.7673C78.1297 26.6311 78.258 26.5035 78.4488 26.3988L78.4652 26.3869C78.622 26.2582 78.9126 26.3182 79.008 26.3509C79.0212 26.3563 80.416 26.8971 80.9753 27.126L81.0554 27.1587L81.1058 27.09C81.4216 26.6616 84.1631 23.3856 84.1916 23.3529L84.2552 23.2765L84.1839 23.2057L83.2014 22.2409L83.1751 22.2212C83.1257 22.1962 78.281 19.7105 77.6702 19.3671C77.43 19.233 77.3006 19.0989 77.2732 18.9561C77.2403 18.7893 77.3368 18.5778 77.5846 18.2693C77.9915 17.7635 78.3336 17.3841 78.7043 17.4735C79.0508 17.564 87.6437 19.7716 87.7303 19.7934L87.7917 19.8097L91.2504 16.3386C91.3546 16.2612 92.8459 15.1797 93.5763 15.8534C94.266 16.5773 93.1924 18.0709 93.1157 18.1755L89.6581 21.6478Z" fill="#03294E"/>
<path d="M93.1153 18.1754L89.6577 21.6477L89.6742 21.7076C89.6983 21.7937 92.0011 30.3147 92.0954 30.657C92.181 30.996 91.909 31.2893 91.3059 31.7788C90.9978 32.0284 90.785 32.1266 90.6183 32.096C90.4747 32.0699 90.3387 31.9423 90.2005 31.7047C89.8485 31.1007 87.3022 26.3082 87.277 26.2603L86.2057 25.1962L86.1289 25.2605C86.1234 25.2649 86.0401 25.3347 85.9019 25.4502C85.1551 26.0738 82.8007 28.0405 82.3994 28.3643C82.3983 28.3654 82.3972 28.3654 82.3961 28.3665L82.3906 28.3709L82.3314 28.4156L82.3325 28.4177L82.3643 28.4941C82.6001 29.0479 83.1571 30.4291 83.1615 30.44C83.1637 30.4433 83.2854 30.7943 83.1319 30.9819L83.1209 30.9982C83.0168 31.189 82.8907 31.3176 82.7558 31.4539C82.7251 31.4855 82.6933 31.5182 82.6615 31.5509C82.6417 31.5673 82.6231 31.5847 82.6034 31.6022C82.4334 31.7559 82.3204 31.8584 82.0891 31.6665H82.088C81.7612 31.3961 78.0624 27.7549 77.786 27.4311C77.5919 27.2022 77.6928 27.0888 77.8474 26.9176C77.8661 26.8969 77.8836 26.8773 77.8935 26.8642C77.9275 26.8315 77.9604 26.7988 77.9933 26.7672C78.1293 26.6309 78.2576 26.5034 78.4484 26.3987L78.4648 26.3867C78.6216 26.2581 78.9122 26.318 79.0076 26.3507C79.0208 26.3562 80.4157 26.8969 80.9749 27.1259L81.055 27.1586L81.1054 27.0899C81.4212 26.6614 84.1627 23.3854 84.1912 23.3527L84.2548 23.2764L84.1835 23.2055L83.201 22.2407L83.1747 22.2211C83.1253 22.196 78.2806 19.7104 77.6698 19.367C77.4296 19.2329 77.3002 19.0988 77.2728 18.956C77.2399 18.7892 77.3364 18.5777 77.5843 18.2692C77.9911 17.7633 78.3332 17.3839 78.7039 17.4733C79.0504 17.5638 87.6433 19.7714 87.7299 19.7932L87.7913 19.8096L91.25 16.3384C91.3541 16.261 92.8455 15.1796 93.5758 15.8533C94.2656 16.5772 93.192 18.0707 93.1153 18.1754Z" fill="#03294E"/>
<path d="M102.023 46.1489L104.841 33.4558H107.561L107.318 35.8041H107.415C107.933 35.0453 108.528 34.425 109.201 33.9442C109.873 33.4646 110.67 33.2236 111.593 33.2236C112.5 33.2236 113.204 33.4526 113.707 33.9094C114.209 34.3661 114.54 34.9985 114.702 35.8041H114.8C115.302 35.0453 115.901 34.425 116.597 33.9442C117.293 33.4646 118.103 33.2236 119.026 33.2236C120.127 33.2236 120.953 33.5529 121.503 34.2113C122.054 34.8698 122.329 35.7572 122.329 36.8736C122.329 37.4318 122.24 38.1142 122.061 38.9199L120.482 46.15H116.912L118.539 38.7345C118.669 38.1927 118.733 37.7425 118.733 37.386C118.733 36.456 118.345 35.9916 117.568 35.9916C117.034 35.9916 116.548 36.2086 116.11 36.6425C115.673 37.0764 115.292 37.6618 114.969 38.3977C114.644 39.1336 114.385 39.9588 114.191 40.8735L113.05 46.1511H109.48L111.108 38.7356C111.237 38.1938 111.302 37.7436 111.302 37.3871C111.302 36.4571 110.914 35.9927 110.136 35.9927C109.602 35.9927 109.116 36.214 108.679 36.6555C108.241 37.0971 107.865 37.6901 107.549 38.4336C107.233 39.1772 106.97 39.9992 106.76 40.8975L105.594 46.1511H102.023V46.1489Z" fill="#03294E"/>
<path d="M129.674 46.2833C128.797 46.2833 128.018 46.1012 127.336 45.7371C126.654 45.373 126.122 44.8551 125.741 44.1836C125.361 43.512 125.17 42.7129 125.17 41.7841C125.17 40.756 125.299 39.7814 125.558 38.8602C125.817 37.939 126.205 37.1246 126.722 36.4182C127.239 35.7117 127.888 35.1579 128.671 34.7578C129.454 34.3577 130.37 34.1582 131.418 34.1582C132.782 34.1582 133.867 34.5648 134.672 35.3792C135.476 36.1936 135.878 37.3285 135.878 38.785C135.878 39.7705 135.756 40.7124 135.512 41.6129C135.267 42.5123 134.89 43.3125 134.38 44.0124C133.87 44.7123 133.223 45.2661 132.441 45.6728C131.66 46.0805 130.736 46.2833 129.674 46.2833ZM129.932 43.7126C130.521 43.7126 131.02 43.4771 131.43 43.0062C131.84 42.5352 132.152 41.9247 132.368 41.1747C132.583 40.4246 132.691 39.6288 132.691 38.7861C132.691 38.2006 132.58 37.7111 132.357 37.3187C132.134 36.9262 131.743 36.73 131.183 36.73C130.709 36.73 130.292 36.8902 129.932 37.2118C129.573 37.5334 129.279 37.951 129.049 38.4655C128.818 38.9801 128.646 39.5296 128.531 40.115C128.416 40.7004 128.359 41.2575 128.359 41.7863C128.36 43.0705 128.884 43.7126 129.932 43.7126Z" fill="#03294E"/>
<path d="M137.217 46.0695L139.716 34.3729H142.13L141.915 36.5369H142.001C142.461 35.837 142.989 35.2657 143.585 34.8231C144.18 34.3805 144.889 34.1592 145.708 34.1592C146.728 34.1592 147.489 34.4622 147.992 35.0695C148.494 35.6767 148.746 36.4944 148.746 37.5224C148.746 38.037 148.667 38.6649 148.509 39.4073L147.109 46.0695H143.941L145.385 39.2362C145.5 38.7369 145.557 38.3226 145.557 37.9934C145.557 37.1365 145.177 36.708 144.416 36.708C143.942 36.708 143.511 36.9119 143.123 37.3185C142.735 37.7252 142.401 38.2714 142.121 38.9571C141.841 39.6428 141.606 40.3994 141.42 41.228L140.386 46.0695H137.217Z" fill="#03294E"/>
<path d="M155.445 46.2829C154.065 46.2829 152.946 45.9079 152.084 45.1578C151.222 44.4078 150.791 43.2762 150.791 41.7619C150.791 40.7764 150.931 39.8301 151.211 38.923C151.491 38.016 151.907 37.206 152.461 36.4919C153.014 35.7778 153.7 35.2099 154.519 34.789C155.339 34.3682 156.286 34.1567 157.364 34.1567C158.685 34.1567 159.673 34.4565 160.327 35.0561C160.981 35.6557 161.307 36.42 161.307 37.3488C161.307 38.5775 160.75 39.563 159.637 40.3054C158.524 41.0478 156.826 41.4196 154.541 41.4196H154.002C153.988 41.5057 153.98 41.5798 153.98 41.6442C153.98 41.7085 153.98 41.7761 153.98 41.848C153.98 42.4771 154.163 42.9764 154.529 43.3481C154.896 43.7199 155.409 43.9052 156.07 43.9052C156.687 43.9052 157.248 43.8344 157.751 43.6915C158.253 43.5487 158.85 43.3198 159.54 43.0058V45.3835C158.922 45.6833 158.297 45.9079 157.664 46.0583C157.033 46.2088 156.293 46.2829 155.445 46.2829ZM154.82 39.3003C156.04 39.3003 156.921 39.1117 157.459 38.7323C157.998 38.354 158.268 37.9146 158.268 37.4153C158.268 36.759 157.901 36.4298 157.169 36.4298C156.781 36.4298 156.394 36.5508 156.005 36.7939C155.617 37.037 155.276 37.3728 154.982 37.8012C154.687 38.2297 154.476 38.7301 154.346 39.3013H154.82V39.3003Z" fill="#03294E"/>
<path d="M166.154 46.2828C165.234 46.2828 164.495 46.0865 163.935 45.6941C163.374 45.3016 163.095 44.5984 163.095 43.5835C163.095 43.227 163.137 42.8334 163.224 42.405L164.43 36.7709H162.836L163.138 35.2283L165.206 34.3496L166.585 31.8857H168.633L168.115 34.3703H171.089L170.571 36.7698H167.597L166.391 42.4039C166.348 42.6187 166.326 42.804 166.326 42.961C166.326 43.2324 166.413 43.4287 166.585 43.5497C166.757 43.6707 166.98 43.7317 167.253 43.7317C167.54 43.7317 167.817 43.7001 168.083 43.6358C168.348 43.5715 168.64 43.4821 168.956 43.3676V45.7235C168.625 45.8805 168.223 46.0124 167.75 46.1203C167.276 46.2283 166.743 46.2828 166.154 46.2828Z" fill="#03294E"/>
<path d="M171.067 46.0695L173.567 34.3729H175.98L175.764 36.5369H175.872C176.345 35.7945 176.885 35.2123 177.488 34.7915C178.091 34.3707 178.773 34.1592 179.535 34.1592C179.707 34.1592 179.891 34.1701 180.085 34.1908C180.279 34.2126 180.432 34.2377 180.547 34.266L179.858 37.3076C179.743 37.2651 179.591 37.2259 179.405 37.1899C179.218 37.1539 179.017 37.1365 178.802 37.1365C178.011 37.1365 177.304 37.4472 176.679 38.0686C176.054 38.69 175.612 39.6145 175.354 40.8431L174.233 46.0706H171.067V46.0695Z" fill="#03294E"/>
<path d="M180.138 46.0695L182.637 34.3728H185.805L183.306 46.0695H180.138ZM184.728 32.9163C184.283 32.9163 183.906 32.8204 183.596 32.6274C183.287 32.4345 183.134 32.103 183.134 31.631C183.134 31.0314 183.302 30.5746 183.64 30.2595C183.978 29.9456 184.448 29.7886 185.052 29.7886C185.468 29.7886 185.834 29.8812 186.15 30.0666C186.466 30.2519 186.624 30.5811 186.624 31.0521C186.624 31.6092 186.469 32.0594 186.161 32.4018C185.852 32.7452 185.374 32.9163 184.728 32.9163Z" fill="#03294E"/>
<path d="M185.439 51.211L189.038 34.373H191.452L191.28 36.1511H191.367C191.739 35.6518 192.2 35.195 192.746 34.7796C193.292 34.3653 193.946 34.1582 194.707 34.1582C195.281 34.1582 195.82 34.2977 196.323 34.5757C196.825 34.8537 197.235 35.304 197.551 35.9254C197.867 36.5468 198.025 37.3786 198.025 38.4208C198.025 39.3639 197.896 40.3025 197.637 41.2379C197.378 42.1733 197.012 43.0193 196.538 43.7769C196.064 44.5346 195.493 45.1408 194.825 45.5976C194.157 46.0544 193.406 46.2833 192.574 46.2833C191.856 46.2833 191.303 46.1187 190.915 45.7905C190.527 45.4624 190.189 45.0547 189.901 44.5695H189.815C189.772 45.1408 189.714 45.6619 189.643 46.1328C189.57 46.6038 189.477 47.1107 189.363 47.6537L188.609 51.2099H185.439V51.211ZM192.033 43.7344C192.421 43.7344 192.783 43.5807 193.121 43.2744C193.459 42.9669 193.753 42.5636 194.005 42.0643C194.256 41.565 194.453 41.0079 194.597 40.393C194.741 39.7792 194.812 39.1654 194.812 38.5506C194.812 37.323 194.353 36.7082 193.433 36.7082C192.915 36.7082 192.477 36.8935 192.118 37.2652C191.758 37.637 191.464 38.1003 191.234 38.6574C191.004 39.2145 190.835 39.7858 190.727 40.3712C190.62 40.9566 190.566 41.4636 190.566 41.892C190.566 42.4491 190.699 42.895 190.965 43.2308C191.233 43.5665 191.588 43.7344 192.033 43.7344Z" fill="#03294E"/>
</svg>
